<svg width="160" height="45" viewBox="0 0 160 45" fill="none" xmlns="http://www.w3.org/2000/svg">
<g clip-path="url(#clip0_103_18118)">
<path d="M157.484 0H2.51572C1.12633 0 0 1.13186 0 2.52809V41.9663C0 43.3625 1.12633 44.4944 2.51572 44.4944H157.484C158.874 44.4944 160 43.3625 160 41.9663V2.52809C160 1.13186 158.874 0 157.484 0Z" fill="#F53B49"/>
<path fill-rule="evenodd" clip-rule="evenodd" d="M0.50293 43.5591C0.961657 44.1761 1.69421 44.5755 2.51959 44.5755H157.488C158.878 44.5755 160.004 43.4437 160.004 42.0474V2.60926C160.004 2.00309 159.791 1.44675 159.438 1.01123L0.50293 43.5591Z" fill="#F53B49"/>
<path d="M12.1765 27.5055V24.7499H25.3589V27.5055H12.1765ZM20.9312 12.8932L29.9878 31.8539H26.4406L18.2142 14.1572H19.4972L11.2708 31.8539H7.72363L16.7802 12.8932H20.9312ZM44.0308 26.2162C43.8631 27.396 43.4019 28.4409 42.6472 29.351C41.8924 30.2443 40.9281 30.9437 39.7541 31.4494C38.5801 31.955 37.2719 32.2078 35.8295 32.2078C34.186 32.2078 32.7352 31.896 31.4773 31.2724C30.2363 30.6319 29.2635 29.7471 28.5591 28.6179C27.8547 27.4887 27.5025 26.1825 27.5025 24.6994C27.5025 23.2162 27.8547 21.91 28.5591 20.7808C29.2635 19.6516 30.2363 18.7752 31.4773 18.1516C32.7352 17.5111 34.186 17.1909 35.8295 17.1909C37.2719 17.1909 38.5801 17.4437 39.7541 17.9494C40.9281 18.455 41.8924 19.1628 42.6472 20.073C43.4019 20.9662 43.8631 22.0111 44.0308 23.2078H40.7352C40.5004 22.1292 39.9386 21.2864 39.0497 20.6797C38.1608 20.073 37.0874 19.7696 35.8295 19.7696C34.8233 19.7696 33.9428 19.9718 33.188 20.3763C32.4333 20.764 31.8463 21.3286 31.427 22.0701C31.0245 22.7949 30.8233 23.6713 30.8233 24.6994C30.8233 25.7106 31.0245 26.587 31.427 27.3286C31.8463 28.0702 32.4333 28.6432 33.188 29.0477C33.9428 29.4353 34.8233 29.6291 35.8295 29.6291C37.1042 29.6291 38.186 29.3173 39.0748 28.6937C39.9637 28.0702 40.5172 27.2443 40.7352 26.2162H44.0308ZM41.9874 20.073V18.5814L45.0314 17.7977L46.3899 13.8033H48.3018V17.5449H54.9181V20.073H48.3018V26.2668C48.3018 27.4634 48.5534 28.3061 49.0566 28.7949C49.5765 29.2668 50.415 29.5027 51.5722 29.5027C52.3103 29.5027 52.9644 29.4269 53.5345 29.2752C54.105 29.1067 54.6499 28.8707 55.1697 28.5673V31.2724C54.734 31.4915 54.1131 31.7022 53.308 31.9044C52.5201 32.1067 51.7065 32.2078 50.8678 32.2078C49.4759 32.2078 48.3522 31.9803 47.4968 31.5252C46.6415 31.0533 46.0125 30.4128 45.61 29.6039C45.2243 28.778 45.0314 27.8342 45.0314 26.7724V20.073H41.9874ZM54.7848 17.4437L56.42 17.7471L58.0552 17.4437V31.8539H54.7848V17.4437ZM56.42 15.6488C55.7991 15.6488 55.2879 15.4803 54.8854 15.1432C54.4829 14.7892 54.2816 14.3342 54.2816 13.778C54.2816 13.2218 54.4829 12.7752 54.8854 12.4381C55.2879 12.0842 55.7991 11.9072 56.42 11.9072C57.057 11.9072 57.5687 12.0842 57.9546 12.4381C58.3571 12.7752 58.5584 13.2218 58.5584 13.778C58.5584 14.3342 58.3571 14.7892 57.9546 15.1432C57.5687 15.4803 57.057 15.6488 56.42 15.6488ZM66.6987 30.3876H65.4409L71.2773 17.5449H74.7742L67.8308 31.8539H64.1579L57.2145 17.5449H60.8119L66.6987 30.3876ZM80.9523 32.2078C79.2919 32.2078 77.8162 31.896 76.5246 31.2724C75.2336 30.6319 74.2187 29.7471 73.4806 28.6179C72.743 27.4887 72.3737 26.1741 72.3737 24.6741C72.3737 23.191 72.7178 21.8932 73.4051 20.7808C74.1095 19.6516 75.0741 18.7752 76.2982 18.1516C77.5395 17.5111 78.9568 17.1909 80.5498 17.1909C82.1433 17.1909 83.5184 17.5533 84.6756 18.278C85.8499 18.9859 86.7556 19.9887 87.3926 21.2864C88.03 22.5842 88.3485 24.1095 88.3485 25.8623H74.9397V23.3595H86.7133L85.0781 24.2949C85.0278 23.351 84.8014 22.542 84.3989 21.8679C84.0134 21.1938 83.4851 20.6797 82.8139 20.3258C82.1599 19.955 81.38 19.7696 80.4743 19.7696C79.5184 19.7696 78.6801 19.9634 77.9586 20.351C77.2542 20.7387 76.7007 21.2864 76.2982 21.9943C75.8957 22.6853 75.6945 23.5112 75.6945 24.4718C75.6945 25.5336 75.9294 26.4522 76.3989 27.2275C76.8854 28.0027 77.5646 28.6011 78.4366 29.0224C79.3256 29.4269 80.3737 29.6291 81.5812 29.6291C82.6716 29.6291 83.787 29.4606 84.9272 29.1235C86.0678 28.7696 87.0741 28.2808 87.946 27.6572V30.0336C87.0741 30.7078 86.0089 31.2387 84.7511 31.6263C83.5103 32.014 82.2439 32.2078 80.9523 32.2078ZM107.543 23.6123C107.526 24.792 107.299 25.9044 106.863 26.9494C106.428 27.9774 105.807 28.8875 105.002 29.6797C104.197 30.4719 103.215 31.0954 102.058 31.5505C100.918 31.9887 99.6099 32.2078 98.1337 32.2078C96.6414 32.2078 95.2577 31.9803 93.9828 31.5252C92.7083 31.0701 91.5928 30.4213 90.6368 29.5786C89.698 28.719 88.9684 27.6825 88.4482 26.469C87.9284 25.2555 87.6683 23.8904 87.6683 22.3735C87.6683 20.8567 87.9284 19.4915 88.4482 18.278C88.985 17.0645 89.7312 16.0365 90.6872 15.1937C91.6431 14.3342 92.7672 13.6769 94.0582 13.2218C95.3498 12.7668 96.7672 12.5392 98.3098 12.5392C100.239 12.5392 101.924 12.8595 103.366 13.4999C104.826 14.1235 106 14.9831 106.888 16.0786C107.777 17.1741 108.322 18.4297 108.524 19.8454H105.153C104.968 18.9522 104.566 18.1769 103.945 17.5196C103.341 16.8623 102.561 16.3567 101.605 16.0027C100.649 15.6488 99.5425 15.4718 98.2846 15.4718C96.8089 15.4718 95.5259 15.7499 94.4356 16.3061C93.3624 16.8454 92.5236 17.6292 91.9199 18.6572C91.3332 19.6853 91.0394 20.9241 91.0394 22.3735C91.0394 23.823 91.3412 25.0701 91.945 26.1151C92.5659 27.1601 93.4378 27.9606 94.5614 28.5168C95.6854 29.073 97.0102 29.351 98.5362 29.351C100.012 29.351 101.304 29.0982 102.41 28.5926C103.517 28.087 104.39 27.3876 105.027 26.4943C105.664 25.5842 106.008 24.5308 106.058 23.3342L107.543 23.6123ZM99.1903 25.0533V22.5252H108.725V31.8539H106.259L105.857 23.9915L106.637 25.0533H99.1903ZM117.085 32.2078C115.424 32.2078 113.948 31.896 112.657 31.2724C111.365 30.6319 110.351 29.7471 109.613 28.6179C108.875 27.4887 108.506 26.1741 108.506 24.6741C108.506 23.191 108.85 21.8932 109.537 20.7808C110.242 19.6516 111.206 18.7752 112.431 18.1516C113.671 17.5111 115.089 17.1909 116.682 17.1909C118.275 17.1909 119.651 17.5533 120.808 18.278C121.982 18.9859 122.887 19.9887 123.525 21.2864C124.162 22.5842 124.481 24.1095 124.481 25.8623H111.072V23.3595H122.846L121.21 24.2949C121.16 23.351 120.934 22.542 120.531 21.8679C120.145 21.1938 119.617 20.6797 118.946 20.3258C118.292 19.955 117.512 19.7696 116.607 19.7696C115.651 19.7696 114.812 19.9634 114.091 20.351C113.387 20.7387 112.833 21.2864 112.431 21.9943C112.028 22.6853 111.827 23.5112 111.827 24.4718C111.827 25.5336 112.061 26.4522 112.531 27.2275C113.017 28.0027 113.696 28.6011 114.569 29.0224C115.457 29.4269 116.506 29.6291 117.714 29.6291C118.803 29.6291 119.919 29.4606 121.059 29.1235C122.2 28.7696 123.206 28.2808 124.078 27.6572V30.0336C123.206 30.7078 122.141 31.2387 120.883 31.6263C119.642 32.014 118.376 32.2078 117.085 32.2078ZM137.687 31.8539L137.134 26.5449L137.788 24.6994L137.134 22.8791L137.687 17.5449H141.058L140.304 24.6994L141.058 31.8539H137.687ZM138.694 24.6994C138.375 26.1994 137.846 27.514 137.109 28.6432C136.371 29.7724 135.456 30.6488 134.367 31.2724C133.293 31.896 132.094 32.2078 130.769 32.2078C129.377 32.2078 128.144 31.896 127.071 31.2724C125.997 30.6319 125.159 29.7471 124.555 28.6179C123.952 27.4887 123.65 26.1825 123.65 24.6994C123.65 23.1993 123.952 21.8932 124.555 20.7808C125.159 19.6516 125.997 18.7752 127.071 18.1516C128.144 17.5111 129.377 17.1909 130.769 17.1909C132.094 17.1909 133.293 17.5027 134.367 18.1263C135.456 18.7499 136.371 19.6263 137.109 20.7555C137.864 21.8679 138.392 23.1825 138.694 24.6994ZM126.97 24.6994C126.97 25.66 127.163 26.5111 127.549 27.2527C127.952 27.9774 128.496 28.5505 129.184 28.9718C129.872 29.3763 130.66 29.5786 131.549 29.5786C132.455 29.5786 133.293 29.3763 134.065 28.9718C134.836 28.5505 135.515 27.9774 136.102 27.2527C136.706 26.5111 137.184 25.66 137.536 24.6994C137.184 23.7387 136.706 22.896 136.102 22.1713C135.515 21.4297 134.836 20.8567 134.065 20.4522C133.293 20.0308 132.455 19.8201 131.549 19.8201C130.66 19.8201 129.872 20.0308 129.184 20.4522C128.496 20.8567 127.952 21.4297 127.549 22.1713C127.163 22.896 126.97 23.7387 126.97 24.6994ZM140.759 17.5449H144.03L144.885 22.7527V31.8539H141.614V22.1207L140.759 17.5449ZM152.105 17.4437V20.3258C151.736 20.2246 151.334 20.1488 150.897 20.0982C150.462 20.0477 150.051 20.0224 149.665 20.0224C148.743 20.0224 147.921 20.2246 147.199 20.6291C146.478 21.0336 145.908 21.6404 145.489 22.4494C145.086 23.2415 144.885 24.219 144.885 25.3819L144.13 24.4466C144.198 23.4353 144.365 22.4915 144.633 21.6151C144.919 20.7218 145.305 19.9466 145.791 19.2893C146.294 18.6319 146.906 18.1179 147.627 17.7471C148.349 17.3763 149.187 17.1909 150.143 17.1909C150.478 17.1909 150.822 17.2162 151.174 17.2668C151.526 17.3005 151.837 17.3595 152.105 17.4437Z" fill="white"/>
</g>
<defs>
<clipPath id="clip0_103_18118">
<rect width="160" height="45" fill="white"/>
</clipPath>
</defs>
</svg>
